<svg aria-hidden="true" style="position: absolute; width: 0; height: 0; overflow: hidden;" version="1.1" xmlns="http://www.w3.org/2000/svg" xmlns:xlink="http://www.w3.org/1999/xlink">
<defs>
<symbol id="menu" viewBox="0 0 32 32">
<path fill="#fff" style="fill: var(--color2, #fff)" d="M6.4 11.736v-2.136h19.2v2.136h-19.2zM6.4 17.064h19.2v-2.128h-19.2v2.128zM6.4 22.4h19.2v-2.136h-19.2v2.136z"></path>
</symbol>
<symbol id="close" viewBox="0 0 32 32">
<path d="M23.736 10.304l-1.504-1.504-5.968 5.96-5.96-5.96-1.504 1.504 5.96 5.96-5.96 5.976 1.504 1.504 5.96-5.968 5.968 5.968 1.504-1.504-5.968-5.968 5.968-5.96z"></path>
</symbol>
<symbol id="copyright" viewBox="0 0 32 32">
<path fill="#9da4bd" style="fill: var(--color1, #9da4bd)" d="M15.813 11.413c2.053 0.107 2.56 1.867 2.613 2.667h2.853c-0.133-3.173-2.4-5.093-5.52-5.093-3.547 0-6.16 2.213-6.16 7.227 0 3.12 1.493 6.8 6.133 6.8 3.573 0 5.467-2.667 5.52-4.72h-2.88c-0.027 0.933-0.72 2.213-2.587 2.293-2.107-0.053-2.987-1.653-2.987-4.373 0-4.613 2.053-4.747 3.013-4.8zM16 0c-8.837 0-16 7.163-16 16s7.163 16 16 16v0c8.837 0 16-7.163 16-16s-7.163-16-16-16v0zM16 28.8c-7.071-0.008-12.8-5.741-12.8-12.813 0-7.077 5.737-12.813 12.813-12.813 0.005 0 0.009 0 0.014 0h-0.001c7.071 0.008 12.8 5.741 12.8 12.813 0 7.077-5.737 12.813-12.813 12.813-0.005 0-0.009 0-0.014 0h0.001z"></path>
</symbol>
<symbol id="heart" viewBox="0 0 32 32">
<path fill="#ff6b08" style="fill: var(--color1, #ff6b08)" d="M16 30.144l-2.24-2.218c-8.32-7.287-13.76-12.198-13.76-18.218 0-4.911 3.84-8.713 8.8-8.713 2.72 0 5.44 1.267 7.2 3.327 1.76-2.059 4.48-3.327 7.2-3.327 4.96 0 8.8 3.802 8.8 8.713 0 6.020-5.44 10.931-13.76 18.218l-2.24 2.218z"></path>
</symbol>
<symbol id="github" viewBox="0 0 32 32">
<path d="M16 0.396c-8.84 0-16 7.164-16 16 0 7.071 4.584 13.067 10.94 15.18 0.8 0.151 1.093-0.344 1.093-0.769 0-0.38-0.013-1.387-0.020-2.72-4.451 0.965-5.389-2.147-5.389-2.147-0.728-1.847-1.78-2.34-1.78-2.34-1.449-0.992 0.112-0.972 0.112-0.972 1.607 0.112 2.451 1.648 2.451 1.648 1.427 2.447 3.745 1.74 4.66 1.331 0.144-1.035 0.556-1.74 1.013-2.14-3.553-0.4-7.288-1.776-7.288-7.907 0-1.747 0.62-3.173 1.647-4.293-0.18-0.404-0.72-2.031 0.14-4.235 0 0 1.34-0.429 4.4 1.64 1.28-0.356 2.64-0.532 4-0.54 1.36 0.008 2.72 0.184 4 0.54 3.040-2.069 4.38-1.64 4.38-1.64 0.86 2.204 0.32 3.831 0.16 4.235 1.020 1.12 1.64 2.547 1.64 4.293 0 6.147-3.74 7.5-7.3 7.893 0.56 0.48 1.080 1.461 1.080 2.96 0 2.141-0.020 3.861-0.020 4.381 0 0.42 0.28 0.92 1.1 0.76 6.401-2.099 10.981-8.099 10.981-15.159 0-8.836-7.164-16-16-16z"></path>
</symbol>
<symbol id="linkedin" viewBox="0 0 32 32">
<path d="M32 32v-11.744c0-5.728-1.232-10.16-7.952-10.16-0.076-0.003-0.166-0.005-0.256-0.005-2.555 0-4.788 1.376-5.999 3.428l-0.018 0.032h-0.096v-2.912h-6.368v21.36h6.64v-10.576c0-2.784 0.528-5.488 3.968-5.488 3.408 0 3.456 3.184 3.456 5.664v10.4h6.624zM0.528 10.64h6.64v21.36h-6.64v-21.36zM3.84 0c-2.121 0-3.84 1.719-3.84 3.84v0c-0 0.005-0 0.010-0 0.016 0 2.127 1.715 3.854 3.838 3.872h0.002c2.128 0 3.84-1.76 3.84-3.888 0-2.121-1.719-3.84-3.84-3.84v0z"></path>
</symbol>
<symbol id="arrow-up" viewBox="0 0 32 32">
<path d="M27.414 12.586l-10-10c-0.781-0.781-2.047-0.781-2.828 0l-10 10c-0.781 0.781-0.781 2.047 0 2.828s2.047 0.781 2.828 0l6.586-6.586v19.172c0 1.105 0.895 2 2 2s2-0.895 2-2v-19.172l6.586 6.586c0.39 0.39 0.902 0.586 1.414 0.586s1.024-0.195 1.414-0.586c0.781-0.781 0.781-2.047 0-2.828z"></path>
</symbol>
<symbol id="circle-up" viewBox="0 0 32 32">
<path d="M0 16c0 8.837 7.163 16 16 16s16-7.163 16-16-7.163-16-16-16-16 7.163-16 16zM29 16c0 7.18-5.82 13-13 13s-13-5.82-13-13 5.82-13 13-13 13 5.82 13 13z"></path>
<path d="M22.086 20.914l2.829-2.829-8.914-8.914-8.914 8.914 2.828 2.828 6.086-6.086z"></path>
</symbol>
<symbol id="spinner" viewBox="0 0 32 32">
<path d="M12 4c0-2.209 1.791-4 4-4s4 1.791 4 4c0 2.209-1.791 4-4 4s-4-1.791-4-4zM20.485 7.515c0-2.209 1.791-4 4-4s4 1.791 4 4c0 2.209-1.791 4-4 4s-4-1.791-4-4zM26 16c0-1.105 0.895-2 2-2s2 0.895 2 2c0 1.105-0.895 2-2 2s-2-0.895-2-2zM22.485 24.485c0-1.105 0.895-2 2-2s2 0.895 2 2c0 1.105-0.895 2-2 2s-2-0.895-2-2zM14 28c0 0 0 0 0 0 0-1.105 0.895-2 2-2s2 0.895 2 2c0 0 0 0 0 0 0 1.105-0.895 2-2 2s-2-0.895-2-2zM5.515 24.485c0 0 0 0 0 0 0-1.105 0.895-2 2-2s2 0.895 2 2c0 0 0 0 0 0 0 1.105-0.895 2-2 2s-2-0.895-2-2zM4.515 7.515c0 0 0 0 0 0 0-1.657 1.343-3 3-3s3 1.343 3 3c0 0 0 0 0 0 0 1.657-1.343 3-3 3s-3-1.343-3-3zM1.75 16c0-1.243 1.007-2.25 2.25-2.25s2.25 1.007 2.25 2.25c0 1.243-1.007 2.25-2.25 2.25s-2.25-1.007-2.25-2.25z"></path>
</symbol>
<symbol id="cog" viewBox="0 0 32 32">
<path d="M29.181 19.070c-1.679-2.908-0.669-6.634 2.255-8.328l-3.145-5.447c-0.898 0.527-1.943 0.829-3.058 0.829-3.361 0-6.085-2.742-6.085-6.125h-6.289c0.008 1.044-0.252 2.103-0.811 3.070-1.679 2.908-5.411 3.897-8.339 2.211l-3.144 5.447c0.905 0.515 1.689 1.268 2.246 2.234 1.676 2.903 0.672 6.623-2.241 8.319l3.145 5.447c0.895-0.522 1.935-0.82 3.044-0.82 3.35 0 6.067 2.725 6.084 6.092h6.289c-0.003-1.034 0.259-2.080 0.811-3.038 1.676-2.903 5.399-3.894 8.325-2.219l3.145-5.447c-0.899-0.515-1.678-1.266-2.232-2.226zM16 22.479c-3.578 0-6.479-2.901-6.479-6.479s2.901-6.479 6.479-6.479c3.578 0 6.479 2.901 6.479 6.479s-2.901 6.479-6.479 6.479z"></path>
</symbol>
<symbol id="search" viewBox="0 0 12 12">
<path d="M5.5 9.5a4 4 0 1 0 0-8 4 4 0 0 0 0 8ZM10.5 10.5 8.325 8.325" fill="none"  stroke="#fff"/></path>
</symbol>
<symbol id="arrow-left" viewBox="0 0 32 32">
<path stroke-linejoin="round" stroke-linecap="round" stroke-miterlimit="4" stroke-width="2.6667" d="M25.333 16h-18.667"></path>
<path stroke-linejoin="round" stroke-linecap="round" stroke-miterlimit="4" stroke-width="2.6667" d="M16 25.334l-9.333-9.333 9.333-9.333"></path>
</symbol>
<symbol id="arrow-right" viewBox="0 0 32 32">
<path stroke-linejoin="round" stroke-linecap="round" stroke-miterlimit="4" stroke-width="2.6667" d="M6.667 16h18.667"></path>
<path stroke-linejoin="round" stroke-linecap="round" stroke-miterlimit="4" stroke-width="2.6667" d="M16 25.334l9.333-9.333-9.333-9.333"></path>
</symbol>
<symbol id="icon-close" viewBox="0 0 20 20">
<path d="M15 4.108 13.892 3 9.5 7.392 5.108 3 4 4.108 8.392 8.5 4 12.892 5.108 14 9.5 9.608 13.892 14 15 12.892 10.608 8.5 15 4.108Z"></path>
</symbol>
<symbol id="dark-mode" viewBox="0 0 32 32">
    <path d="M12.493 7.347a9.8 9.8 0 0 0-.36 2.653c0 5.44 4.427 9.867 9.867 9.867.907 0 1.8-.12 2.653-.36-1.387 3.413-4.747 5.827-8.653 5.827-5.147 0-9.333-4.187-9.333-9.333 0-3.907 2.413-7.267 5.827-8.653zM16 4C9.373 4 4 9.373 4 16s5.373 12 12 12 12-5.373 12-12c0-.613-.053-1.227-.133-1.813A7.184 7.184 0 0 1 22 17.2a7.204 7.204 0 0 1-4.187-13.067A13.5 13.5 0 0 0 16 4z"/>
</symbol>
<symbol id="`" viewBox="0 0 32 32">
    <path d="m9.013 6.453-2.4-2.387-1.88 1.88L7.12 8.333zM1.333 14h4v2.667h-4zM14.667.733h2.667v3.933h-2.667zm10.72 3.327 1.877 1.876-2.387 2.387-1.876-1.877zm-2.4 20.153 2.387 2.4 1.88-1.88-2.4-2.387zM26.667 14h4v2.667h-4zM16 7.333c-4.413 0-8 3.587-8 8s3.587 8 8 8 8-3.587 8-8-3.587-8-8-8zm0 13.334c-2.947 0-5.333-2.387-5.333-5.333s2.387-5.333 5.333-5.333 5.333 2.387 5.333 5.333-2.387 5.333-5.333 5.333zM14.667 26h2.667v3.933h-2.667zm-9.934-1.28 1.88 1.88L9 24.2l-1.88-1.88z"/>
</symbol>
<symbol id="enter" viewBox="0 0 32 32">
      <path d="M14.667 16C17.614 16 20 13.613 20 10.667s-2.387-5.333-5.333-5.333-5.333 2.387-5.333 5.333S11.721 16 14.667 16zm0-8c1.467 0 2.667 1.2 2.667 2.667s-1.2 2.667-2.667 2.667S12 12.134 12 10.667 13.2 8 14.667 8zm-8 16c.267-.84 3.427-2.24 6.613-2.587L16 18.746c-.52-.053-.907-.08-1.333-.08C11.107 18.666 4 20.453 4 23.999v2.667h12l-2.667-2.667H6.666zm20.8-7.333-6.84 6.893-2.76-2.773L16 22.667l4.627 4.667 8.707-8.787z"/>
</symbol>
<symbol id="registration" viewBox="0 0 32 32">
      <path d="M16 7.867a2.8 2.8 0 1 1 0 5.6 2.8 2.8 0 1 1 0-5.6zm0 12c3.96 0 8.133 1.947 8.133 2.8v1.467H7.866v-1.467c0-.853 4.173-2.8 8.133-2.8zm0-14.534c-2.947 0-5.333 2.387-5.333 5.333s2.387 5.333 5.333 5.333 5.333-2.387 5.333-5.333S18.946 5.333 16 5.333zm0 12c-3.56 0-10.667 1.787-10.667 5.333v4h21.333v-4c0-3.547-7.107-5.333-10.667-5.333z"/>
</symbol>
<symbol id="filter" viewBox="0 0 32 32">
      <path d="M4 24h8v-2.667H4V24zM4 8v2.667h24V8H4zm0 9.333h16v-2.667H4v2.667z"/>
</symbol>

</defs>
</svg>