<svg aria-hidden="true" style="width:0;height:0;position:absolute;overflow:hidden" xmlns="http://www.w3.org/2000/svg"><defs><symbol id="menu" viewBox="0 0 32 32"><path fill="#fff" style="fill:var(--color2,#fff)" d="M6.4 11.736V9.6h19.2v2.136H6.4zm0 5.328h19.2v-2.128H6.4v2.128zm0 5.336h19.2v-2.136H6.4V22.4z"/></symbol><symbol id="close" viewBox="0 0 32 32"><path d="M23.736 10.304 22.232 8.8l-5.968 5.96-5.96-5.96L8.8 10.304l5.96 5.96L8.8 22.24l1.504 1.504 5.96-5.968 5.968 5.968 1.504-1.504-5.968-5.968 5.968-5.96z"/></symbol><symbol id="copyright" viewBox="0 0 32 32"><path fill="#9da4bd" style="fill:var(--color1,#9da4bd)" d="M15.813 11.413c2.053.107 2.56 1.867 2.613 2.667h2.853c-.133-3.173-2.4-5.093-5.52-5.093-3.547 0-6.16 2.213-6.16 7.227 0 3.12 1.493 6.8 6.133 6.8 3.573 0 5.467-2.667 5.52-4.72h-2.88c-.027.933-.72 2.213-2.587 2.293-2.107-.053-2.987-1.653-2.987-4.373 0-4.613 2.053-4.747 3.013-4.8zM16 0C7.163 0 0 7.163 0 16s7.163 16 16 16 16-7.163 16-16S24.837 0 16 0zm0 28.8c-7.071-.008-12.8-5.741-12.8-12.813C3.2 8.91 8.937 3.174 16.013 3.174h.014-.001c7.071.008 12.8 5.741 12.8 12.813 0 7.077-5.737 12.813-12.813 12.813h-.014H16z"/></symbol><symbol id="heart" viewBox="0 0 32 32"><path fill="#ff6b08" style="fill:var(--color1,#ff6b08)" d="m16 30.144-2.24-2.218C5.44 20.639 0 15.728 0 9.708 0 4.797 3.84.995 8.8.995c2.72 0 5.44 1.267 7.2 3.327C17.76 2.263 20.48.995 23.2.995c4.96 0 8.8 3.802 8.8 8.713 0 6.02-5.44 10.931-13.76 18.218L16 30.144z"/></symbol><symbol id="github" viewBox="0 0 32 32"><path d="M16 .396c-8.84 0-16 7.164-16 16 0 7.071 4.584 13.067 10.94 15.18.8.151 1.093-.344 1.093-.769 0-.38-.013-1.387-.02-2.72-4.451.965-5.389-2.147-5.389-2.147-.728-1.847-1.78-2.34-1.78-2.34-1.449-.992.112-.972.112-.972 1.607.112 2.451 1.648 2.451 1.648 1.427 2.447 3.745 1.74 4.66 1.331.144-1.035.556-1.74 1.013-2.14-3.553-.4-7.288-1.776-7.288-7.907 0-1.747.62-3.173 1.647-4.293-.18-.404-.72-2.031.14-4.235 0 0 1.34-.429 4.4 1.64 1.28-.356 2.64-.532 4-.54 1.36.008 2.72.184 4 .54 3.04-2.069 4.38-1.64 4.38-1.64.86 2.204.32 3.831.16 4.235 1.02 1.12 1.64 2.547 1.64 4.293 0 6.147-3.74 7.5-7.3 7.893.56.48 1.08 1.461 1.08 2.96 0 2.141-.02 3.861-.02 4.381 0 .42.28.92 1.1.76C27.42 29.455 32 23.455 32 16.395c0-8.836-7.164-16-16-16z"/></symbol><symbol id="linkedin" viewBox="0 0 32 32"><path d="M32 32V20.256c0-5.728-1.232-10.16-7.952-10.16a6.957 6.957 0 0 0-6.255 3.423l-.018.032h-.096v-2.912h-6.368v21.36h6.64V21.423c0-2.784.528-5.488 3.968-5.488 3.408 0 3.456 3.184 3.456 5.664v10.4h6.624zM.528 10.64h6.64V32H.528V10.64zM3.84 0A3.84 3.84 0 0 0 0 3.84v.016a3.872 3.872 0 0 0 3.838 3.872h.002c2.128 0 3.84-1.76 3.84-3.888A3.84 3.84 0 0 0 3.84 0z"/></symbol><symbol id="arrow-up" viewBox="0 0 32 32"><path d="m27.414 12.586-10-10a2 2 0 0 0-2.828 0l-10 10a2 2 0 1 0 2.828 2.828L14 8.828V28a2 2 0 1 0 4 0V8.828l6.586 6.586c.39.39.902.586 1.414.586s1.024-.195 1.414-.586a2 2 0 0 0 0-2.828z"/></symbol><symbol id="circle-up" viewBox="0 0 32 32"><path d="M0 16c0 8.837 7.163 16 16 16s16-7.163 16-16S24.837 0 16 0 0 7.163 0 16zm29 0c0 7.18-5.82 13-13 13S3 23.18 3 16 8.82 3 16 3s13 5.82 13 13z"/><path d="m22.086 20.914 2.829-2.829-8.914-8.914-8.914 8.914 2.828 2.828 6.086-6.086z"/></symbol><symbol id="spinner" viewBox="0 0 32 32"><path d="M12 4a4 4 0 1 1 8 0 4 4 0 0 1-8 0zm8.485 3.515a4 4 0 1 1 8 0 4 4 0 0 1-8 0zM26 16a2 2 0 1 1 3.999-.001A2 2 0 0 1 26 16zm-3.515 8.485a2 2 0 1 1 3.999-.001 2 2 0 0 1-3.999.001zM14 28a2 2 0 1 1 4 0 2 2 0 1 1-4 0zm-8.485-3.515a2 2 0 1 1 4 0 2 2 0 1 1-4 0zm-1-16.97a3 3 0 1 1 6 0 3 3 0 1 1-6 0zM1.75 16a2.25 2.25 0 1 1 4.5 0 2.25 2.25 0 0 1-4.5 0z"/></symbol><symbol id="cog" viewBox="0 0 32 32"><path d="M29.181 19.07c-1.679-2.908-.669-6.634 2.255-8.328l-3.145-5.447a6.022 6.022 0 0 1-3.058.829c-3.361 0-6.085-2.742-6.085-6.125h-6.289a6.023 6.023 0 0 1-.811 3.07C10.369 5.977 6.637 6.966 3.709 5.28L.565 10.727a6.023 6.023 0 0 1 2.246 2.234c1.676 2.903.672 6.623-2.241 8.319l3.145 5.447a6.022 6.022 0 0 1 3.044-.82c3.35 0 6.067 2.725 6.084 6.092h6.289a6.032 6.032 0 0 1 .811-3.038c1.676-2.903 5.399-3.894 8.325-2.219l3.145-5.447a6.032 6.032 0 0 1-2.232-2.226zM16 22.479A6.48 6.48 0 1 1 16 9.52a6.48 6.48 0 0 1 0 12.959z"/></symbol><symbol id="search" viewBox="0 0 12 12"><path d="M5.5 9.5a4 4 0 1 0 0-8 4 4 0 0 0 0 8Zm5 1L8.325 8.325" fill="none" stroke="#fff"/></symbol><symbol id="arrow-right" viewBox="0 0 32 32"><path d="M32.001 16.003 19.374 28.629a3.217 3.217 0 0 1-2.28.944 3.223 3.223 0 0 1-2.28-5.505l4.842-4.842H3.223a3.224 3.224 0 0 1 0-6.448h16.429l-4.843-4.843a3.222 3.222 0 0 1 0-4.559 3.223 3.223 0 0 1 4.56 0l12.63 12.629z"/></symbol><symbol id="arrow-right" viewBox="0 0 32 32"><path stroke-linejoin="round" stroke-linecap="round" stroke-width="2.667" d="M6.667 16h18.667M16 25.334l9.333-9.333L16 6.668"/></symbol><symbol id="icon-close" viewBox="0 0 20 20"><path d="M15 4.108 13.892 3 9.5 7.392 5.108 3 4 4.108 8.392 8.5 4 12.892 5.108 14 9.5 9.608 13.892 14 15 12.892 10.608 8.5 15 4.108Z"/></symbol><symbol id="dark-mode" viewBox="0 0 32 32"><path d="M12.493 7.347a9.8 9.8 0 0 0-.36 2.653c0 5.44 4.427 9.867 9.867 9.867.907 0 1.8-.12 2.653-.36-1.387 3.413-4.747 5.827-8.653 5.827-5.147 0-9.333-4.187-9.333-9.333 0-3.907 2.413-7.267 5.827-8.653zM16 4C9.373 4 4 9.373 4 16s5.373 12 12 12 12-5.373 12-12c0-.613-.053-1.227-.133-1.813A7.184 7.184 0 0 1 22 17.2a7.204 7.204 0 0 1-4.187-13.067A13.5 13.5 0 0 0 16 4z"/></symbol><symbol id="sun" viewBox="0 0 32 32"><path d="m9.013 6.453-2.4-2.387-1.88 1.88L7.12 8.333zM1.333 14h4v2.667h-4zM14.667.733h2.667v3.933h-2.667zm10.72 3.327 1.877 1.876-2.387 2.387-1.876-1.877zm-2.4 20.153 2.387 2.4 1.88-1.88-2.4-2.387zM26.667 14h4v2.667h-4zM16 7.333c-4.413 0-8 3.587-8 8s3.587 8 8 8 8-3.587 8-8-3.587-8-8-8zm0 13.334c-2.947 0-5.333-2.387-5.333-5.333s2.387-5.333 5.333-5.333 5.333 2.387 5.333 5.333-2.387 5.333-5.333 5.333zM14.667 26h2.667v3.933h-2.667zm-9.934-1.28 1.88 1.88L9 24.2l-1.88-1.88z"/></symbol><symbol id="enter" viewBox="0 0 32 32"><path d="M14.667 16C17.614 16 20 13.613 20 10.667s-2.387-5.333-5.333-5.333-5.333 2.387-5.333 5.333S11.721 16 14.667 16zm0-8c1.467 0 2.667 1.2 2.667 2.667s-1.2 2.667-2.667 2.667S12 12.134 12 10.667 13.2 8 14.667 8zm-8 16c.267-.84 3.427-2.24 6.613-2.587L16 18.746c-.52-.053-.907-.08-1.333-.08C11.107 18.666 4 20.453 4 23.999v2.667h12l-2.667-2.667H6.666zm20.8-7.333-6.84 6.893-2.76-2.773L16 22.667l4.627 4.667 8.707-8.787z"/></symbol><symbol id="registration" viewBox="0 0 32 32"><path d="M16 7.867a2.8 2.8 0 1 1 0 5.6 2.8 2.8 0 1 1 0-5.6zm0 12c3.96 0 8.133 1.947 8.133 2.8v1.467H7.866v-1.467c0-.853 4.173-2.8 8.133-2.8zm0-14.534c-2.947 0-5.333 2.387-5.333 5.333s2.387 5.333 5.333 5.333 5.333-2.387 5.333-5.333S18.946 5.333 16 5.333zm0 12c-3.56 0-10.667 1.787-10.667 5.333v4h21.333v-4c0-3.547-7.107-5.333-10.667-5.333z"/></symbol><symbol id="filter" viewBox="0 0 32 32"><path d="M4 24h8v-2.667H4V24zM4 8v2.667h24V8H4zm0 9.333h16v-2.667H4v2.667z"/></symbol><symbol id="mail" viewBox="0 0 32 32"><path d="M5.315 9.274 13.05 16l-7.737 6.728A1.008 1.008 0 0 1 5 21.993V10.007c0-.289.121-.549.315-.733zm22.372-.002c.194.184.313.445.313.735v11.986c0 .289-.121.549-.315.733L19.95 16l7.737-6.728zm-8.485 7.379L26.5 23h-20l7.298-6.349L16.5 19l2.702-2.349zM6.004 8A2 2 0 0 0 4 9.994v12.012C4 23.107 4.89 24 6.004 24h20.993a2 2 0 0 0 2.004-1.994V9.994c0-1.101-.89-1.994-2.004-1.994H6.004zM16.5 17.7 6.5 9h20l-10 8.7z"/></symbol><symbol id="key" viewBox="0 0 32 32"><path d="M18.532 19.468 14 24h-3v3H8v3H3v-5l10.532-10.532A8.49 8.49 0 0 1 13 11.5a8.5 8.5 0 1 1 5.532 7.968zm-4.533-3.967L4 25.5V29h3v-3h3v-3h3.5l3.999-3.999a8.54 8.54 0 0 1-3.5-3.5zM29 11.5a7.5 7.5 0 1 0-15 0 7.5 7.5 0 0 0 15 0zM27 9a3 3 0 1 1-6 0 3 3 0 0 1 6 0zm-1 0a2 2 0 1 0-3.999-.001A2 2 0 0 0 26 9z"/></symbol><symbol id="key1" viewBox="0 0 32 32"><path d="m13.009 22-1.5 1.5 2.5 2.5-3 3-2.5-2.5-1.875 1.875a2.152 2.152 0 0 1-3.042.007l.035.035a2.152 2.152 0 0 1 .007-3.042l12.157-12.157a7 7 0 1 1 3 3L16.009 19l2 2-3 3-2-2zm9-8a4 4 0 1 0 0-8 4 4 0 0 0 0 8z"/></symbol><symbol id="lock-open" viewBox="0 0 32 32"><path d="M24 9.5v3c0 .826-.672 1.5-1.5 1.5-.834 0-1.5-.672-1.5-1.5v-4a4.503 4.503 0 0 0-4.5-4.499c-2.485 0-4.5 2.01-4.5 4.499v7.001c0 .169.009.335.027.499H24c1.659.005 3 1.35 3 3.009v9.981a3.002 3.002 0 0 1-3.009 3.009H9.009A3.008 3.008 0 0 1 6 28.99v-9.981A3.001 3.001 0 0 1 9 16V8.499A7.499 7.499 0 0 1 16.5 1C20.634 1 24 4.358 24 8.499V9.5zm-1-1.007C23 4.907 20.083 2 16.5 2 12.91 2 10 4.908 10 8.493v7.013c0 .166.006.331.019.493H11V8.508a5.5 5.5 0 0 1 5.5-5.509c3.031 0 5.5 2.466 5.5 5.509v3.993c0 .275.232.498.5.498.276 0 .5-.215.5-.49V8.493zm-7 15.422a1.5 1.5 0 1 1 1 0v2.594a.501.501 0 0 1-1 0v-2.594zm-1 .585v1.998a1.5 1.5 0 1 0 3 0V24.5a2.5 2.5 0 1 0-3 0zM8.997 17A2 2 0 0 0 7 19.006v9.988A2 2 0 0 0 8.997 31h15.005a2 2 0 0 0 1.997-2.006v-9.988A2 2 0 0 0 24.002 17H8.997z"/></symbol><symbol id="lock" viewBox="0 0 32 32"><path d="M15 21.915a1.5 1.5 0 1 1 1 0v2.594a.501.501 0 0 1-1 0v-2.594zm-1 .585v1.998a1.5 1.5 0 1 0 3 0V22.5a2.5 2.5 0 1 0-3 0zM8 14v-3.501A7.499 7.499 0 0 1 15.5 3c4.134 0 7.5 3.358 7.5 7.499V14c1.659.005 3 1.35 3 3.009v9.981a3.002 3.002 0 0 1-3.009 3.009H8.009A3.008 3.008 0 0 1 5 26.99v-9.981A3.001 3.001 0 0 1 8 14zm1 0h1v-3.491A5.5 5.5 0 0 1 15.5 5c3.031 0 5.5 2.466 5.5 5.509V14h1v-3.507C22 6.907 19.083 4 15.5 4 11.91 4 9 6.908 9 10.493V14zm2 0h9v-3.499A4.504 4.504 0 0 0 15.5 6a4.497 4.497 0 0 0-4.5 4.501V14zm-3.003 1A2 2 0 0 0 6 17.006v9.988A2 2 0 0 0 7.997 29h15.005a2 2 0 0 0 1.997-2.006v-9.988A2 2 0 0 0 23.002 15H7.997z"/></symbol></defs></svg>